PathFileType	4	(X/Y/Z)	C:\Users\86182\Documents\cortex\Trimmed_M1_L13.trc
DataRate	CameraRate	NumFrames	NumMarkers	Units	OrigDataRate	OrigDataStartFrame	OrigNumFrames
100.00	100.00	       112	2	mm	100.00	361	       901
Frame#	Time	gripper			box			
		X1	Y1	Z1	X2	Y2	Z2	

361	3.600	199.86971	196.15675	281.58554	200.70201	195.32104	142.37149	
362	3.610	199.95395	196.03198	282.05533	200.50722	195.35709	142.66615	
363	3.620	199.77870	196.09393	282.38605	200.80362	195.50049	143.29814	
364	3.630	199.84279	196.18855	282.76425	200.99931	195.51102	143.73190	
365	3.640	199.81566	196.21489	283.32849	200.82838	195.40834	144.04344	
366	3.650	199.88831	196.18161	283.68384	200.66989	195.40909	144.33589	
367	3.660	199.96300	196.05319	283.96048	200.74745	195.50667	144.99315	
368	3.670	199.93594	196.22340	284.57935	200.68996	195.48018	145.40407	
369	3.680	199.67792	196.10449	284.90018	200.79028	195.53033	145.64575	
370	3.690	199.64609	196.06453	285.36411	200.55383	195.51460	146.14140	
371	3.700	199.83270	196.12764	285.79111	200.38588	195.49074	146.76445	
372	3.710	199.63852	196.10666	286.28043	200.68393	195.50784	147.15652	
373	3.720	199.66003	196.08449	286.70029	200.66180	195.58080	147.38838	
374	3.730	199.66052	196.08171	286.89310	200.52147	195.46469	147.64816	
375	3.740	199.59343	196.16104	287.41241	200.40811	195.40224	148.23106	
376	3.750	199.44121	196.08980	288.07294	200.37102	195.61394	148.91304	
377	3.760	199.42218	195.96504	288.30667	200.48540	195.69484	149.04776	
378	3.770	199.33699	196.02058	288.52005	200.48607	195.55827	149.32959	
379	3.780	199.64951	196.05038	289.22568	200.63008	195.48767	149.80408	
380	3.790	199.39104	195.99007	289.52252	200.50958	195.46040	150.21762	
381	3.800	199.32179	196.01587	289.86456	200.37247	195.68828	150.75433	
382	3.810	199.42502	195.97049	290.18158	200.42079	195.71964	150.99850	
383	3.820	199.67888	196.08295	290.60623	200.39978	195.58124	151.34874	
384	3.830	199.70535	196.07593	290.94434	200.61751	195.58302	151.65195	
385	3.840	199.62697	196.02644	291.26044	200.70845	195.70830	151.96956	
386	3.850	199.73666	196.02371	291.37567	200.69603	195.65530	152.17467	
387	3.860	199.55571	195.98711	291.64166	200.51660	195.61981	152.38846	
388	3.870	199.71474	196.09073	292.04279	200.45384	195.61824	152.84158	
389	3.880	199.71800	196.15402	292.39386	200.64406	195.70406	153.18794	
390	3.890	199.73418	196.16728	292.44028	200.64819	195.65128	153.44272	
391	3.900	199.63522	196.18066	292.56400	200.65494	195.63017	153.49652	
392	3.910	199.66960	196.13280	292.72955	200.69890	195.69521	153.54843	
393	3.920	199.59453	196.11563	292.77985	200.76247	195.76340	153.61923	
394	3.930	199.40620	196.21094	292.92416	200.76247	195.76340	153.61923	
395	3.940	199.28224	196.16666	293.05295	200.74406	195.78255	153.64363	
396	3.950	199.32521	196.14136	293.13113	200.69131	195.83310	153.81108	
397	3.960	199.17487	196.17551	293.20276	200.69418	195.85573	153.93881	
398	3.970	199.12401	196.18407	293.31207	200.64963	195.86378	153.98961	
399	3.980	199.10091	196.20935	293.36218	200.59087	195.90262	154.01686	
400	3.990	198.94160	196.18030	293.43405	200.55458	195.89052	154.03285	
401	4.000	198.97598	196.16528	293.43597	200.55309	195.87964	154.04366	
402	4.010	198.96887	196.13287	293.45773	200.58188	195.85576	154.02742	
403	4.020	199.00911	196.12155	293.44797	200.60486	195.84050	154.02708	
404	4.030	199.05582	196.11549	293.45251	200.59691	195.84415	154.02576	
405	4.040	199.13507	196.15297	293.44202	200.57204	195.83453	154.04466	
406	4.050	199.19403	196.16499	293.42538	200.65146	195.84579	153.99799	
407	4.060	199.17920	196.15521	293.41632	200.68430	195.84145	153.99002	
408	4.070	199.22437	196.14740	293.39200	200.68964	195.84349	153.98526	
409	4.080	199.27289	196.12593	293.39014	200.71950	195.85487	153.95871	
410	4.090	199.20871	196.13251	293.38708	200.70728	195.85022	153.96956	
411	4.100	199.21251	196.15596	293.37650	200.69637	195.85437	153.96880	
412	4.110	199.22459	196.13797	293.39914	200.69748	195.85315	153.96989	
413	4.120	199.21947	196.16356	293.40161	200.70024	195.84755	153.97581	
414	4.130	199.23322	196.13927	293.41241	200.71774	195.85422	153.96025	
415	4.140	199.19096	196.07896	293.36191	200.71950	195.85487	153.95871	
416	4.150	199.24947	196.02829	293.34189	200.71950	195.85487	153.95871	
417	4.160	199.20602	195.99390	293.33600	200.73499	195.82689	153.92079	
418	4.170	199.22115	195.99696	293.30551	200.69360	195.70560	153.85292	
419	4.180	199.36629	195.98943	293.15811	200.64510	195.64725	153.79941	
420	4.190	199.39197	195.99059	293.09973	200.49905	195.54666	153.81538	
421	4.200	199.33676	196.02884	293.09293	200.49431	195.58528	153.78555	
422	4.210	199.33171	196.01747	293.07053	200.46616	195.56825	153.78862	
423	4.220	199.34393	196.01303	293.05545	200.46634	195.57210	153.78149	
424	4.230	199.36647	196.01669	293.08908	200.47542	195.57773	153.78784	
425	4.240	199.36569	196.01775	293.09320	200.52014	195.55791	153.81834	
426	4.250	199.44769	196.01199	293.09058	200.59235	195.58916	153.81198	
427	4.260	199.48409	196.01271	293.12524	200.62785	195.62634	153.80727	
428	4.270	199.47554	195.96606	293.16214	200.64136	195.64194	153.80264	
429	4.280	199.52811	195.97430	293.13840	200.64383	195.64815	153.79526	
430	4.290	199.53723	195.94621	293.14560	200.62021	195.61726	153.81036	
431	4.300	199.53525	195.95964	293.08673	200.58867	195.58046	153.82188	
432	4.310	199.49789	195.96152	293.09344	200.57442	195.56462	153.82556	
433	4.320	199.51718	195.97363	293.07227	200.58011	195.56920	153.82748	
434	4.330	199.48953	195.97502	293.06424	200.53790	195.52658	153.83006	
435	4.340	199.49384	195.97667	293.06857	200.57140	195.59248	153.80298	
436	4.350	199.49788	195.98024	293.07504	200.55669	195.58044	153.81345	
437	4.360	199.46559	195.99449	293.08694	200.59761	195.60263	153.81065	
438	4.370	199.48019	195.97327	293.12994	200.61142	195.60922	153.80927	
439	4.380	199.49745	195.97516	293.10529	200.57062	195.55923	153.82880	
440	4.390	199.45770	195.98192	293.14066	200.61154	195.60762	153.81261	
441	4.400	199.48697	195.96803	293.15298	200.62820	195.62323	153.81400	
442	4.410	199.47685	195.98166	293.09973	200.62939	195.63210	153.79901	
443	4.420	199.43909	196.01349	293.09497	200.61043	195.60870	153.80841	
444	4.430	199.42891	196.00630	293.08411	200.57388	195.58597	153.81291	
445	4.440	199.43073	196.00600	293.07364	200.59265	195.60168	153.80302	
446	4.450	199.45851	195.97473	293.07611	200.50691	195.54536	153.82512	
447	4.460	199.46768	195.98563	293.07990	200.56645	195.57066	153.82100	
448	4.470	199.50140	195.97995	293.07449	200.58484	195.57678	153.82175	
449	4.480	199.42268	195.98718	293.12631	200.59335	195.58798	153.81619	
450	4.490	199.44618	195.98393	293.11884	200.62564	195.62677	153.80222	
451	4.500	199.48438	195.96323	293.14813	200.59726	195.59001	153.81967	
452	4.510	199.50940	195.96802	293.13370	200.60689	195.60013	153.81833	
453	4.520	199.41356	195.97856	293.13956	200.60667	195.60338	153.81161	
454	4.530	199.43433	195.98157	293.12091	200.62021	195.61726	153.81036	
455	4.540	199.39877	196.00575	293.10345	200.59607	195.59444	153.80879	
456	4.550	199.40439	196.00391	293.10559	200.61119	195.61240	153.80266	
457	4.560	199.36967	196.01280	293.09290	200.61925	195.65079	153.78828	
458	4.570	199.39552	196.00108	293.07031	200.58379	195.61189	153.79640	
459	4.580	199.39569	195.99854	293.08768	200.52237	195.59866	153.78955	
460	4.590	199.39160	196.00169	293.09018	200.55116	195.58679	153.80588	
461	4.600	199.45143	195.97063	293.10254	200.57193	195.57581	153.81395	
462	4.610	199.46136	195.98424	293.13794	200.55638	195.54170	153.83585	
463	4.620	199.44688	195.98177	293.14438	200.60667	195.60338	153.81161	
464	4.630	199.43593	196.00793	293.12579	200.61142	195.60922	153.80927	
465	4.640	199.48309	195.95975	293.13513	200.60210	195.59422	153.82069	
466	4.650	199.49402	195.96782	293.10629	200.60011	195.59319	153.81894	
467	4.660	199.46426	196.00549	293.09232	200.60579	195.60124	153.81409	
468	4.670	199.46860	195.99551	293.07657	200.59045	195.58649	153.81358	
469	4.680	199.49472	195.96880	293.04703	200.58661	195.58449	153.81015	
470	4.690	199.50554	195.97772	293.07291	200.57809	195.59766	153.80569	
471	4.700	199.51874	195.98773	293.07211	200.58739	195.59509	153.81334	
472	4.710	199.49020	196.01846	293.07117	200.61905	195.61829	153.80617	
